<svg width="178" height="79" viewBox="0 0 178 79" fill="none" xmlns="http://www.w3.org/2000/svg">
<rect width="178" height="79" fill="#1E1E1E"/>
<g clip-path="url(#clip0_0_1)">
<rect width="1440" height="870" transform="translate(-983 -709)" fill="#2A596A"/>
<rect width="1180" height="245" transform="translate(-853 -84)" fill="#2A596A"/>
<g clip-path="url(#clip1_0_1)">
<rect width="178" height="79" rx="20" fill="white"/>
<path d="M31.8203 53C32.0938 50.1354 32.276 47.8828 32.3672 46.2422C32.4974 44.0026 32.6211 40.9297 32.7383 37.0234C32.8685 33.1172 32.9336 30.3633 32.9336 28.7617C32.9336 28.1888 32.9271 27.3815 32.9141 26.3398C34.6458 26.3789 36.0195 26.3984 37.0352 26.3984C38.4544 26.3984 40.1081 26.3724 41.9961 26.3203C43.8841 26.2552 45.5052 26.2227 46.8594 26.2227C48.487 26.2227 49.6458 26.2682 50.3359 26.3594C51.2474 26.4766 52.0417 26.6849 52.7188 26.9844C53.4089 27.2839 53.9818 27.6549 54.4375 28.0977C54.9453 28.6185 55.3424 29.2435 55.6289 29.9727C55.9544 30.806 56.1172 31.6979 56.1172 32.6484C56.1172 33.3906 56.0195 34.1003 55.8242 34.7773C55.6419 35.4544 55.375 36.0599 55.0234 36.5938C54.6849 37.1146 54.3008 37.5508 53.8711 37.9023C53.4414 38.2539 53.0182 38.5273 52.6016 38.7227C52.1979 38.918 51.651 39.1133 50.9609 39.3086C51.651 39.4258 52.2044 39.5625 52.6211 39.7188C53.0378 39.862 53.4805 40.1029 53.9492 40.4414C54.431 40.7669 54.8607 41.1901 55.2383 41.7109C55.6159 42.2318 55.8958 42.8177 56.0781 43.4688C56.2734 44.1068 56.3711 44.7839 56.3711 45.5C56.3711 46.4896 56.2083 47.4206 55.8828 48.293C55.5573 49.1654 55.1016 49.9141 54.5156 50.5391C54.0208 51.0729 53.3763 51.5286 52.582 51.9062C51.7878 52.2839 50.974 52.5443 50.1406 52.6875C49.4635 52.7917 48.2266 52.8698 46.4297 52.9219C44.6458 52.974 42.7513 53 40.7461 53L35.6094 52.9805L31.8203 53ZM40.5312 36.7305H43.3047C44.2161 36.7305 44.8607 36.7109 45.2383 36.6719C45.6289 36.6198 46.0065 36.5352 46.3711 36.418C46.7357 36.3008 47.0482 36.1055 47.3086 35.832C47.582 35.5586 47.7708 35.2526 47.875 34.9141C47.9922 34.5755 48.0508 34.237 48.0508 33.8984C48.0508 33.4167 47.9336 32.987 47.6992 32.6094C47.4779 32.2318 47.1133 31.9518 46.6055 31.7695C46.0977 31.5872 45.3229 31.4961 44.2812 31.4961H40.7656L40.5312 36.7305ZM40.082 47.6484H43.832C44.8216 47.6484 45.5508 47.5898 46.0195 47.4727C46.5924 47.3294 47.0286 47.1406 47.3281 46.9062C47.6276 46.6719 47.862 46.3529 48.0312 45.9492C48.2135 45.5456 48.3047 45.0964 48.3047 44.6016C48.3047 44.1719 48.2331 43.7943 48.0898 43.4688C47.9466 43.1432 47.7318 42.8698 47.4453 42.6484C47.1589 42.4271 46.8073 42.2708 46.3906 42.1797C45.974 42.0755 45.3229 42.0234 44.4375 42.0234H40.3164L40.082 47.6484ZM76.2734 25.832C78.3568 25.832 80.362 26.112 82.2891 26.6719C84.2161 27.2318 85.9023 28.1302 87.3477 29.3672C88.793 30.5911 89.8737 32.0039 90.5898 33.6055C91.306 35.207 91.6641 37.0495 91.6641 39.1328C91.6641 41.3203 91.2669 43.332 90.4727 45.168C89.6914 46.9909 88.5586 48.5404 87.0742 49.8164C85.5898 51.0924 83.819 52.0299 81.7617 52.6289C79.7044 53.2148 77.5625 53.5078 75.3359 53.5078C73.1354 53.5078 71.026 53.2214 69.0078 52.6484C66.9896 52.0625 65.2318 51.125 63.7344 49.8359C62.25 48.5339 61.1953 47.0885 60.5703 45.5C59.9453 43.9115 59.6328 42.1471 59.6328 40.207C59.6328 37.3555 60.2904 34.8555 61.6055 32.707C62.9336 30.5456 64.8932 28.8594 67.4844 27.6484C70.0885 26.4375 73.0182 25.832 76.2734 25.832ZM75.9219 31.7109C74.4245 31.7109 73.0703 32.082 71.8594 32.8242C70.6484 33.5534 69.7174 34.5755 69.0664 35.8906C68.4154 37.1927 68.0898 38.5924 68.0898 40.0898C68.0898 41.4701 68.3828 42.7331 68.9688 43.8789C69.5677 45.0247 70.4727 45.9232 71.6836 46.5742C72.8945 47.2122 74.1771 47.5312 75.5312 47.5312C76.9766 47.5312 78.2982 47.1732 79.4961 46.457C80.707 45.7279 81.625 44.7122 82.25 43.4102C82.888 42.0951 83.207 40.7214 83.207 39.2891C83.207 37.8958 82.9141 36.6133 82.3281 35.4414C81.7422 34.2565 80.8828 33.3385 79.75 32.6875C78.6172 32.0365 77.3411 31.7109 75.9219 31.7109ZM94.5938 53C94.9193 49.9271 95.1536 47.4206 95.2969 45.4805C95.5703 41.9388 95.7721 38.4232 95.9023 34.9336C96.0456 31.431 96.1172 28.5664 96.1172 26.3398C97.888 26.3659 99.457 26.3789 100.824 26.3789C101.749 26.3789 103.077 26.3659 104.809 26.3398L104.34 33.4102L103.754 44.4648L103.676 47.1797C105.915 47.2188 107.374 47.2383 108.051 47.2383C111.475 47.2383 114.066 47.1927 115.824 47.1016L115.395 53C111.97 52.974 108.708 52.9609 105.609 52.9609C101.417 52.9609 97.7448 52.974 94.5938 53ZM118.266 53C118.552 50.0312 118.747 47.6549 118.852 45.8711C119.008 43.2148 119.164 39.7773 119.32 35.5586C119.438 32.3294 119.496 30.0182 119.496 28.625V26.3398C121.02 26.3789 122.335 26.3984 123.441 26.3984C124.509 26.3984 125.909 26.3724 127.641 26.3203C129.372 26.2552 131 26.2227 132.523 26.2227C134.268 26.2227 135.798 26.3268 137.113 26.5352C138.428 26.7435 139.652 27.1732 140.785 27.8242C141.931 28.4753 142.888 29.3281 143.656 30.3828C144.424 31.4375 145.01 32.6745 145.414 34.0938C145.818 35.5 146.02 36.9518 146.02 38.4492C146.02 39.9206 145.863 41.3398 145.551 42.707C145.238 44.0612 144.802 45.2852 144.242 46.3789C143.682 47.4727 143.025 48.4167 142.27 49.2109C141.527 49.9922 140.674 50.6628 139.711 51.2227C138.995 51.6393 138.272 51.9648 137.543 52.1992C136.814 52.4336 135.818 52.6224 134.555 52.7656C133.148 52.9219 131.553 53 129.77 53L121.879 52.9414C121.137 52.9414 119.932 52.9609 118.266 53ZM126.703 47.1211C127.419 47.1862 128.168 47.2188 128.949 47.2188C130.277 47.2188 131.462 47.1016 132.504 46.8672C133.546 46.6328 134.457 46.1315 135.238 45.3633C136.033 44.5951 136.618 43.612 136.996 42.4141C137.374 41.2031 137.562 39.9661 137.562 38.7031C137.562 37.1536 137.283 35.8516 136.723 34.7969C136.163 33.7292 135.414 32.987 134.477 32.5703C133.552 32.1536 132.289 31.9453 130.688 31.9453C129.75 31.9453 128.643 31.9844 127.367 32.0625L126.703 47.1211Z" fill="#2A596A"/>
</g>
</g>
<defs>
<clipPath id="clip0_0_1">
<rect width="1440" height="870" fill="white" transform="translate(-983 -709)"/>
</clipPath>
<clipPath id="clip1_0_1">
<rect width="178" height="79" rx="20" fill="white"/>
</clipPath>
</defs>
</svg>
